<svg xmlns="http://www.w3.org/2000/svg" xmlns:xlink="http://www.w3.org/1999/xlink" width="265.135" height="413.172" viewBox="0 0 265.135 413.172">
  <defs>
    <clipPath id="clip-path">
      <rect id="Rectangle_156" data-name="Rectangle 156" width="265.135" height="192.086" fill="none"/>
    </clipPath>
    <clipPath id="clip-path-2">
      <rect id="Rectangle_156-2" data-name="Rectangle 156" width="265.135" height="221.086" transform="translate(0 -29)" fill="none"/>
    </clipPath>
  </defs>
  <g id="Group_112" data-name="Group 112" transform="translate(-1100.865 -4241.828)">
    <g id="Group_77" data-name="Group 77" transform="translate(1100.865 4462.914)" clip-path="url(#clip-path)">
      <path id="Path_291" data-name="Path 291" d="M247.5,162.882v25.031a4.171,4.171,0,0,0,4.173,4.173h9.291a4.172,4.172,0,0,0,4.173-4.173V154.065a12.822,12.822,0,0,0-12.821-12.821H123.457V58.032a5.044,5.044,0,0,1,5.045-5.043h7.543a5.042,5.042,0,0,1,5.043,5.043v57.683a7.9,7.9,0,0,0,7.9,7.892h103.33a12.822,12.822,0,0,0,12.821-12.821l-.006-27.357a12.822,12.822,0,0,0-12.821-12.821H197.835A3.832,3.832,0,0,1,194,66.774V56.821a3.83,3.83,0,0,1,3.833-3.833h54.479a12.822,12.822,0,0,0,12.821-12.821V12.9A12.822,12.822,0,0,0,252.314.08H109.824a4,4,0,0,0-4,4v9.634a4,4,0,0,0,4,4H243.5a4,4,0,0,1,4,4V31.35a4,4,0,0,1-4,4H184.415a8.052,8.052,0,0,0-8.05,8.053V79.343a8.9,8.9,0,0,0,8.9,8.9H242.1a5.394,5.394,0,0,1,5.394,5.394v6.937a5.394,5.394,0,0,1-5.394,5.394H158.728V48.17a12.822,12.822,0,0,0-12.821-12.821H116.26a10.44,10.44,0,0,0-10.44,10.44V146.056a12.822,12.822,0,0,0,12.821,12.821H243.494a4,4,0,0,1,4,4M75.361,0H17.637V.08H12.821A12.822,12.822,0,0,0,0,12.9V187.913a4.171,4.171,0,0,0,4.173,4.173h9.291a4.172,4.172,0,0,0,4.173-4.173V57.015a4.027,4.027,0,0,1,4.029-4.026h9.557a4.048,4.048,0,0,1,4.051,4.046V90.849a3.668,3.668,0,0,0,3.669,3.669h10.3a3.665,3.665,0,0,0,3.669-3.669L52.9,48.591A13.242,13.242,0,0,0,39.661,35.349H21.666a4.03,4.03,0,0,1-4.029-4.032V21.666a4.029,4.029,0,0,1,4.029-4.029h44.85a4.031,4.031,0,0,1,4.029,4.029V187.913a4.171,4.171,0,0,0,4.173,4.173h9.291a4.172,4.172,0,0,0,4.173-4.173V12.821A12.822,12.822,0,0,0,75.361,0M48.907,112.134H39.276a4,4,0,0,0-4,4v71.781a4.172,4.172,0,0,0,4.173,4.173h9.291a4.171,4.171,0,0,0,4.173-4.173V116.138a4,4,0,0,0-4-4" transform="translate(0 0)" fill="#45c4b0"/>
    </g>
    <g id="Group_77-2" data-name="Group 77" transform="translate(1100.865 4270.828)" clip-path="url(#clip-path-2)">
      <path id="Path_291-2" data-name="Path 291" d="M247.5,162.882v25.031a4.171,4.171,0,0,0,4.173,4.173h9.291a4.172,4.172,0,0,0,4.173-4.173V154.065a12.822,12.822,0,0,0-12.821-12.821H123.457V58.032a5.044,5.044,0,0,1,5.045-5.043h7.543a5.042,5.042,0,0,1,5.043,5.043v57.683a7.9,7.9,0,0,0,7.9,7.892h103.33a12.822,12.822,0,0,0,12.821-12.821l-.006-27.357a12.822,12.822,0,0,0-12.821-12.821H197.835A3.832,3.832,0,0,1,194,66.774V56.821a3.83,3.83,0,0,1,3.833-3.833h54.479a12.822,12.822,0,0,0,12.821-12.821V12.9A12.822,12.822,0,0,0,252.314.08H109.824a4,4,0,0,0-4,4v9.634a4,4,0,0,0,4,4H243.5a4,4,0,0,1,4,4V31.35a4,4,0,0,1-4,4H184.415a8.052,8.052,0,0,0-8.05,8.053V79.343a8.9,8.9,0,0,0,8.9,8.9H242.1a5.394,5.394,0,0,1,5.394,5.394v6.937a5.394,5.394,0,0,1-5.394,5.394H158.728V48.17a12.822,12.822,0,0,0-12.821-12.821H116.26a10.44,10.44,0,0,0-10.44,10.44V146.056a12.822,12.822,0,0,0,12.821,12.821H243.494a4,4,0,0,1,4,4M75.361,0H17.637V.08H12.821A12.822,12.822,0,0,0,0,12.9V187.913a4.171,4.171,0,0,0,4.173,4.173h9.291a4.172,4.172,0,0,0,4.173-4.173V57.015a4.027,4.027,0,0,1,4.029-4.026h9.557a4.048,4.048,0,0,1,4.051,4.046V90.849a3.668,3.668,0,0,0,3.669,3.669h10.3a3.665,3.665,0,0,0,3.669-3.669L52.9,48.591A13.242,13.242,0,0,0,39.661,35.349H21.666a4.03,4.03,0,0,1-4.029-4.032V21.666a4.029,4.029,0,0,1,4.029-4.029h44.85a4.031,4.031,0,0,1,4.029,4.029V187.913a4.171,4.171,0,0,0,4.173,4.173h9.291a4.172,4.172,0,0,0,4.173-4.173V12.821A12.822,12.822,0,0,0,75.361,0M48.907,112.134H39.276a4,4,0,0,0-4,4v71.781a4.172,4.172,0,0,0,4.173,4.173h9.291a4.171,4.171,0,0,0,4.173-4.173V116.138a4,4,0,0,0-4-4" transform="translate(0 0)" fill="#45c4b0"/>
      <path id="Path_292" data-name="Path 292" d="M247.5,162.882v25.031a4.171,4.171,0,0,0,4.173,4.173h9.291a4.172,4.172,0,0,0,4.173-4.173V154.065a12.822,12.822,0,0,0-12.821-12.821H123.457V58.032a5.044,5.044,0,0,1,5.045-5.043h7.543a5.042,5.042,0,0,1,5.043,5.043v57.683a7.9,7.9,0,0,0,7.9,7.892h103.33a12.822,12.822,0,0,0,12.821-12.821l-.006-27.357a12.822,12.822,0,0,0-12.821-12.821H197.835A3.832,3.832,0,0,1,194,66.774V56.821a3.83,3.83,0,0,1,3.833-3.833h54.479a12.822,12.822,0,0,0,12.821-12.821V12.9A12.822,12.822,0,0,0,252.314.08H109.824a4,4,0,0,0-4,4v9.634a4,4,0,0,0,4,4H243.5a4,4,0,0,1,4,4V31.35a4,4,0,0,1-4,4H184.415a8.052,8.052,0,0,0-8.05,8.053V79.343a8.9,8.9,0,0,0,8.9,8.9H242.1a5.394,5.394,0,0,1,5.394,5.394v6.937a5.394,5.394,0,0,1-5.394,5.394H158.728V48.17a12.822,12.822,0,0,0-12.821-12.821H116.26a10.44,10.44,0,0,0-10.44,10.44V146.056a12.822,12.822,0,0,0,12.821,12.821H243.494a4,4,0,0,1,4,4M75.361,0H17.637V.08H12.821A12.822,12.822,0,0,0,0,12.9V187.913a4.171,4.171,0,0,0,4.173,4.173h9.291a4.172,4.172,0,0,0,4.173-4.173V57.015a4.027,4.027,0,0,1,4.029-4.026h9.557a4.048,4.048,0,0,1,4.051,4.046V90.849a3.668,3.668,0,0,0,3.669,3.669h10.3a3.665,3.665,0,0,0,3.669-3.669L52.9,48.591A13.242,13.242,0,0,0,39.661,35.349H21.666a4.03,4.03,0,0,1-4.029-4.032V21.666a4.029,4.029,0,0,1,4.029-4.029h44.85a4.031,4.031,0,0,1,4.029,4.029V187.913a4.171,4.171,0,0,0,4.173,4.173h9.291a4.172,4.172,0,0,0,4.173-4.173V12.821A12.822,12.822,0,0,0,75.361,0M48.907,112.134H39.276a4,4,0,0,0-4,4v71.781a4.172,4.172,0,0,0,4.173,4.173h9.291a4.171,4.171,0,0,0,4.173-4.173V116.138a4,4,0,0,0-4-4" transform="translate(0 -192.086)" fill="#45c4b0"/>
    </g>
  </g>
</svg>
