<svg xmlns="http://www.w3.org/2000/svg" width="21.981" height="20.994" viewBox="0 0 21.981 20.994">
  <path id="Icon_feather-phone" data-name="Icon feather-phone" d="M23.646,17.593v2.934a1.913,1.913,0,0,1-.667,1.449,2.128,2.128,0,0,1-1.578.507,21.077,21.077,0,0,1-8.886-3,19.607,19.607,0,0,1-6.178-5.869,18.742,18.742,0,0,1-3.161-8.48,1.9,1.9,0,0,1,.53-1.495A2.11,2.11,0,0,1,5.225,3H8.314a2.029,2.029,0,0,1,2.059,1.682,12.047,12.047,0,0,0,.721,2.749,1.886,1.886,0,0,1-.463,2.064L9.323,10.737A16.087,16.087,0,0,0,15.5,16.606l1.308-1.242a2.139,2.139,0,0,1,2.173-.44,13.8,13.8,0,0,0,2.893.685A1.989,1.989,0,0,1,23.646,17.593Z" transform="translate(-2.417 -2.25)" fill="none" stroke="#fff" stroke-linecap="round" stroke-linejoin="round" stroke-width="1.5"/>
</svg>
