<svg xmlns="http://www.w3.org/2000/svg" xmlns:xlink="http://www.w3.org/1999/xlink" width="1088" height="189" viewBox="0 0 1088 189">
  <defs>
    <clipPath id="clip-path">
      <rect id="Rectangle_155" data-name="Rectangle 155" width="189" height="373.433" fill="none"/>
    </clipPath>
    <clipPath id="clip-path-2">
      <rect id="Rectangle_155-2" data-name="Rectangle 155" width="189" height="349.562" fill="none"/>
    </clipPath>
    <clipPath id="clip-path-3">
      <rect id="Rectangle_155-3" data-name="Rectangle 155" width="189" height="364.563" fill="none"/>
    </clipPath>
  </defs>
  <g id="Group_117" data-name="Group 117" transform="translate(-139 -653)">
    <g id="Group_65" data-name="Group 65" transform="translate(1227 653) rotate(90)" clip-path="url(#clip-path)">
      <path id="Path_277" data-name="Path 277" d="M101.217,279.478v9.656a1.659,1.659,0,0,0,1.707,1.61h3.8a1.66,1.66,0,0,0,1.707-1.61V276.076a5.1,5.1,0,0,0-5.243-4.946h-52.7v-32.1a2.007,2.007,0,0,1,2.063-1.945h3.085a2.006,2.006,0,0,1,2.062,1.945v22.252a3.141,3.141,0,0,0,3.229,3.045h42.257a5.1,5.1,0,0,0,5.243-4.946l0-10.554a5.1,5.1,0,0,0-5.243-4.946H80.907a1.525,1.525,0,0,1-1.567-1.479v-3.839a1.524,1.524,0,0,1,1.567-1.479h22.279a5.1,5.1,0,0,0,5.243-4.946V221.619a5.1,5.1,0,0,0-5.243-4.946H44.914a1.591,1.591,0,0,0-1.638,1.543v3.717a1.591,1.591,0,0,0,1.638,1.543H99.58a1.592,1.592,0,0,1,1.636,1.544v3.718a1.591,1.591,0,0,1-1.636,1.543H75.419a3.2,3.2,0,0,0-3.292,3.107v13.865a3.541,3.541,0,0,0,3.64,3.433H99.011a2.146,2.146,0,0,1,2.206,2.081v2.676a2.146,2.146,0,0,1-2.206,2.081h-34.1v-22.3a5.1,5.1,0,0,0-5.243-4.946H47.546a4.154,4.154,0,0,0-4.269,4.027v38.681a5.1,5.1,0,0,0,5.243,4.946H99.579a1.593,1.593,0,0,1,1.638,1.545m-70.4-62.836H7.214v.031H5.244A5.1,5.1,0,0,0,0,221.619v67.515a1.659,1.659,0,0,0,1.707,1.61h3.8a1.66,1.66,0,0,0,1.707-1.61v-50.5a1.6,1.6,0,0,1,1.648-1.553H12.77a1.611,1.611,0,0,1,1.657,1.561v13.045a1.46,1.46,0,0,0,1.5,1.415h4.212a1.458,1.458,0,0,0,1.5-1.415l0-16.3a5.269,5.269,0,0,0-5.416-5.109H8.862a1.6,1.6,0,0,1-1.648-1.555V225a1.6,1.6,0,0,1,1.648-1.554H27.2A1.6,1.6,0,0,1,28.851,225v64.134a1.659,1.659,0,0,0,1.707,1.61h3.8a1.66,1.66,0,0,0,1.707-1.61V221.588a5.1,5.1,0,0,0-5.243-4.946M20,259.9H16.063a1.592,1.592,0,0,0-1.636,1.543v27.691a1.66,1.66,0,0,0,1.707,1.61h3.8a1.659,1.659,0,0,0,1.707-1.61V261.445A1.593,1.593,0,0,0,20,259.9" transform="translate(-35.155 14.794)" fill="#45c4b0"/>
      <path id="Path_278" data-name="Path 278" d="M7.213,291.463v-9.575A1.743,1.743,0,0,0,5.42,280.2H1.793A1.744,1.744,0,0,0,0,281.888v12.977a5.1,5.1,0,0,0,5.243,4.946h52.7v32.1a2.007,2.007,0,0,1-2.063,1.945H52.792a2.006,2.006,0,0,1-2.062-1.945V309.659a3.141,3.141,0,0,0-3.229-3.045H5.243A5.1,5.1,0,0,0,0,311.561l0,10.554a5.1,5.1,0,0,0,5.243,4.946H27.523a1.525,1.525,0,0,1,1.567,1.479v3.84a1.525,1.525,0,0,1-1.567,1.477H5.243A5.1,5.1,0,0,0,0,338.8v10.518a5.1,5.1,0,0,0,5.243,4.946H63.515a1.591,1.591,0,0,0,1.638-1.543v-3.717a1.591,1.591,0,0,0-1.638-1.543H8.849a1.592,1.592,0,0,1-1.636-1.544V342.2a1.591,1.591,0,0,1,1.636-1.543H33.011a3.2,3.2,0,0,0,3.292-3.107V323.69a3.541,3.541,0,0,0-3.64-3.433H9.419a2.146,2.146,0,0,1-2.206-2.081V315.5a2.146,2.146,0,0,1,2.206-2.081h34.1v22.3a5.1,5.1,0,0,0,5.243,4.946H60.883a4.154,4.154,0,0,0,4.269-4.027V297.954a5.1,5.1,0,0,0-5.243-4.946H8.851a1.594,1.594,0,0,1-1.639-1.545m70.4,62.836h23.607v-.031h1.969a5.1,5.1,0,0,0,5.243-4.946V281.888a1.744,1.744,0,0,0-1.793-1.691h-3.627a1.744,1.744,0,0,0-1.793,1.691V332.3a1.6,1.6,0,0,1-1.648,1.553H95.66A1.611,1.611,0,0,1,94,332.3V319.251a1.46,1.46,0,0,0-1.5-1.415H88.291a1.458,1.458,0,0,0-1.5,1.415l0,16.3a5.269,5.269,0,0,0,5.416,5.109h7.359a1.6,1.6,0,0,1,1.648,1.555v3.723a1.6,1.6,0,0,1-1.648,1.554H81.226a1.6,1.6,0,0,1-1.648-1.554V281.888a1.743,1.743,0,0,0-1.793-1.691H74.158a1.744,1.744,0,0,0-1.793,1.691v67.465a5.1,5.1,0,0,0,5.243,4.946m10.819-43.258h3.939A1.592,1.592,0,0,0,94,309.5v-27.61A1.744,1.744,0,0,0,92.21,280.2H88.583a1.744,1.744,0,0,0-1.793,1.691V309.5a1.593,1.593,0,0,0,1.638,1.545" transform="translate(-35.155 19.134)" fill="#45c4b0"/>
      <path id="Path_279" data-name="Path 279" d="M111.431,277.933H162.49a5.1,5.1,0,0,0,5.243-4.946V234.306a4.153,4.153,0,0,0-4.268-4.027H151.34a5.1,5.1,0,0,0-5.243,4.946v22.3H112a2.146,2.146,0,0,1-2.2-2.081v-2.676a2.146,2.146,0,0,1,2.2-2.081h23.245a3.54,3.54,0,0,0,3.639-3.433V233.385a3.2,3.2,0,0,0-3.292-3.107H111.429a1.591,1.591,0,0,1-1.635-1.543v-3.718a1.591,1.591,0,0,1,1.635-1.544H166.1a1.591,1.591,0,0,0,1.638-1.543v-3.717a1.591,1.591,0,0,0-1.638-1.543H107.823a5.1,5.1,0,0,0-5.243,4.946v10.517a5.1,5.1,0,0,0,5.243,4.946H130.1a1.525,1.525,0,0,1,1.567,1.479V242.4a1.525,1.525,0,0,1-1.567,1.479H107.826a5.1,5.1,0,0,0-5.243,4.946l0,10.554a5.1,5.1,0,0,0,5.243,4.946h42.258a3.14,3.14,0,0,0,3.229-3.045V239.029a2.007,2.007,0,0,1,2.062-1.946h3.085a2.007,2.007,0,0,1,2.063,1.946v32.1h-52.7a5.1,5.1,0,0,0-5.243,4.946v13.058a1.661,1.661,0,0,0,1.707,1.61h3.8a1.661,1.661,0,0,0,1.708-1.61v-9.656a1.593,1.593,0,0,1,1.638-1.545m63.514-56.345v67.546a1.661,1.661,0,0,0,1.708,1.61h3.8a1.661,1.661,0,0,0,1.707-1.61V225a1.6,1.6,0,0,1,1.647-1.554h18.343A1.6,1.6,0,0,1,203.8,225v3.723a1.6,1.6,0,0,1-1.647,1.555h-7.36a5.269,5.269,0,0,0-5.416,5.109l0,16.3a1.46,1.46,0,0,0,1.5,1.415h4.212a1.46,1.46,0,0,0,1.5-1.415V238.644a1.612,1.612,0,0,1,1.657-1.562h3.909a1.6,1.6,0,0,1,1.647,1.554v50.5a1.661,1.661,0,0,0,1.707,1.61h3.8a1.66,1.66,0,0,0,1.707-1.61V221.619a5.1,5.1,0,0,0-5.242-4.946H203.8v-.031H180.189a5.1,5.1,0,0,0-5.243,4.946m14.424,39.857v27.689a1.661,1.661,0,0,0,1.707,1.61h3.8a1.661,1.661,0,0,0,1.707-1.61V261.443a1.592,1.592,0,0,0-1.635-1.543h-3.94a1.593,1.593,0,0,0-1.638,1.545" transform="translate(-21.565 14.794)" fill="#45c4b0"/>
      <path id="Path_280" data-name="Path 280" d="M202.157,293.008H151.1a5.1,5.1,0,0,0-5.243,4.946v38.681a4.153,4.153,0,0,0,4.269,4.027h12.123a5.1,5.1,0,0,0,5.243-4.946v-22.3h34.1A2.147,2.147,0,0,1,203.8,315.5v2.676a2.147,2.147,0,0,1-2.206,2.081H178.345a3.541,3.541,0,0,0-3.64,3.433v13.865A3.2,3.2,0,0,0,178,340.662h24.162A1.591,1.591,0,0,1,203.8,342.2v3.718a1.591,1.591,0,0,1-1.636,1.544H147.493a1.591,1.591,0,0,0-1.638,1.543v3.717a1.591,1.591,0,0,0,1.638,1.543h58.273a5.1,5.1,0,0,0,5.242-4.946V338.8a5.1,5.1,0,0,0-5.242-4.946H183.486a1.525,1.525,0,0,1-1.567-1.479v-3.84a1.525,1.525,0,0,1,1.567-1.479h22.277a5.1,5.1,0,0,0,5.243-4.946l0-10.554a5.1,5.1,0,0,0-5.242-4.946H163.508a3.14,3.14,0,0,0-3.229,3.045v22.252a2.007,2.007,0,0,1-2.062,1.946h-3.086a2.007,2.007,0,0,1-2.062-1.946v-32.1h52.7a5.1,5.1,0,0,0,5.242-4.946V281.888a1.745,1.745,0,0,0-1.794-1.691h-3.626a1.744,1.744,0,0,0-1.793,1.691v9.575a1.593,1.593,0,0,1-1.639,1.545m-63.514,56.345V281.888a1.745,1.745,0,0,0-1.794-1.691h-3.626a1.745,1.745,0,0,0-1.794,1.691v64.052a1.6,1.6,0,0,1-1.647,1.554H111.439a1.6,1.6,0,0,1-1.647-1.554v-3.723a1.6,1.6,0,0,1,1.647-1.555h7.36a5.269,5.269,0,0,0,5.416-5.109l0-16.3a1.461,1.461,0,0,0-1.5-1.415h-4.212a1.46,1.46,0,0,0-1.5,1.415V332.3a1.612,1.612,0,0,1-1.657,1.562h-3.909a1.6,1.6,0,0,1-1.647-1.554V281.888A1.745,1.745,0,0,0,108,280.2h-3.627a1.744,1.744,0,0,0-1.793,1.691v67.434a5.1,5.1,0,0,0,5.243,4.946h1.969v.031H133.4a5.1,5.1,0,0,0,5.243-4.946M124.219,309.5V281.888a1.746,1.746,0,0,0-1.794-1.691H118.8a1.745,1.745,0,0,0-1.793,1.691V309.5a1.592,1.592,0,0,0,1.635,1.543h3.94a1.594,1.594,0,0,0,1.639-1.545" transform="translate(-21.565 19.134)" fill="#45c4b0"/>
      <path id="Path_281" data-name="Path 281" d="M8.851,137.813H59.91a5.1,5.1,0,0,0,5.243-4.946V94.186a4.154,4.154,0,0,0-4.268-4.027H48.759A5.1,5.1,0,0,0,43.517,95.1v22.3H9.419a2.147,2.147,0,0,1-2.206-2.081v-2.676a2.147,2.147,0,0,1,2.206-2.081H32.663a3.541,3.541,0,0,0,3.64-3.433V93.265a3.2,3.2,0,0,0-3.292-3.107H8.849a1.591,1.591,0,0,1-1.636-1.543V84.9a1.592,1.592,0,0,1,1.636-1.544H63.515a1.591,1.591,0,0,0,1.638-1.543V78.1a1.591,1.591,0,0,0-1.638-1.543H5.243A5.1,5.1,0,0,0,0,81.5V92.016a5.1,5.1,0,0,0,5.243,4.946H27.523a1.525,1.525,0,0,1,1.567,1.479v3.84a1.525,1.525,0,0,1-1.567,1.479H5.246A5.1,5.1,0,0,0,0,108.706L0,119.26a5.1,5.1,0,0,0,5.243,4.946H47.5a3.14,3.14,0,0,0,3.229-3.045V98.909a2.007,2.007,0,0,1,2.062-1.946h3.085a2.007,2.007,0,0,1,2.063,1.946v32.1H5.243A5.1,5.1,0,0,0,0,135.956v13.058a1.66,1.66,0,0,0,1.707,1.61h3.8a1.659,1.659,0,0,0,1.707-1.61v-9.656a1.594,1.594,0,0,1,1.639-1.545M72.366,81.468v67.546a1.66,1.66,0,0,0,1.707,1.61h3.8a1.66,1.66,0,0,0,1.707-1.61V84.88a1.6,1.6,0,0,1,1.647-1.554H99.569a1.6,1.6,0,0,1,1.647,1.554V88.6a1.6,1.6,0,0,1-1.647,1.555h-7.36a5.269,5.269,0,0,0-5.416,5.109l0,16.3a1.46,1.46,0,0,0,1.5,1.415H92.5a1.46,1.46,0,0,0,1.5-1.415V98.524a1.612,1.612,0,0,1,1.657-1.562h3.909a1.6,1.6,0,0,1,1.647,1.554v50.5a1.66,1.66,0,0,0,1.707,1.61h3.8a1.659,1.659,0,0,0,1.707-1.61V81.5a5.1,5.1,0,0,0-5.243-4.946h-1.969v-.031H77.609a5.1,5.1,0,0,0-5.243,4.946M86.79,121.325v27.689a1.66,1.66,0,0,0,1.707,1.61h3.8A1.66,1.66,0,0,0,94,149.014V121.323a1.592,1.592,0,0,0-1.635-1.543h-3.94a1.593,1.593,0,0,0-1.638,1.545" transform="translate(-35.155 5.226)" fill="#45c4b0"/>
      <path id="Path_282" data-name="Path 282" d="M99.578,152.888H48.52a5.1,5.1,0,0,0-5.243,4.946v38.681a4.153,4.153,0,0,0,4.268,4.027H59.669a5.1,5.1,0,0,0,5.243-4.946V173.3h34.1a2.147,2.147,0,0,1,2.206,2.081v2.676a2.147,2.147,0,0,1-2.206,2.081H75.766a3.541,3.541,0,0,0-3.64,3.433v13.865a3.2,3.2,0,0,0,3.292,3.107H99.58a1.592,1.592,0,0,1,1.636,1.543V205.8a1.592,1.592,0,0,1-1.636,1.544H44.914a1.591,1.591,0,0,0-1.638,1.543v3.717a1.591,1.591,0,0,0,1.638,1.543h58.272a5.1,5.1,0,0,0,5.243-4.946V198.684a5.1,5.1,0,0,0-5.243-4.946H80.907a1.525,1.525,0,0,1-1.567-1.479v-3.84a1.525,1.525,0,0,1,1.567-1.479h22.277a5.1,5.1,0,0,0,5.243-4.946l0-10.554a5.1,5.1,0,0,0-5.243-4.946H60.929a3.14,3.14,0,0,0-3.229,3.045v22.252a2.007,2.007,0,0,1-2.062,1.946H52.553a2.007,2.007,0,0,1-2.063-1.946v-32.1h52.7a5.1,5.1,0,0,0,5.243-4.946V141.768a1.745,1.745,0,0,0-1.793-1.691h-3.627a1.744,1.744,0,0,0-1.793,1.691v9.575a1.594,1.594,0,0,1-1.639,1.545M36.064,209.233V141.768a1.745,1.745,0,0,0-1.794-1.691H30.644a1.745,1.745,0,0,0-1.794,1.691v64.052a1.6,1.6,0,0,1-1.647,1.554H8.86a1.6,1.6,0,0,1-1.647-1.554V202.1a1.6,1.6,0,0,1,1.647-1.555h7.36a5.269,5.269,0,0,0,5.416-5.109l0-16.3a1.46,1.46,0,0,0-1.5-1.415H15.927a1.46,1.46,0,0,0-1.5,1.415v13.045a1.612,1.612,0,0,1-1.657,1.562H8.86a1.6,1.6,0,0,1-1.647-1.554V141.768a1.745,1.745,0,0,0-1.793-1.691H1.794A1.744,1.744,0,0,0,0,141.768V209.2a5.1,5.1,0,0,0,5.243,4.946H7.214v.031H30.82a5.1,5.1,0,0,0,5.243-4.946M21.639,169.376V141.768a1.745,1.745,0,0,0-1.793-1.691H16.219a1.745,1.745,0,0,0-1.793,1.691v27.61a1.592,1.592,0,0,0,1.635,1.543H20a1.593,1.593,0,0,0,1.638-1.545" transform="translate(-35.155 9.566)" fill="#45c4b0"/>
      <path id="Path_283" data-name="Path 283" d="M7.213,11.266V1.691A1.743,1.743,0,0,0,5.42,0H1.793A1.744,1.744,0,0,0,0,1.691V14.668a5.1,5.1,0,0,0,5.243,4.946h52.7v32.1a2.007,2.007,0,0,1-2.063,1.945H52.792a2.006,2.006,0,0,1-2.062-1.945V29.462A3.141,3.141,0,0,0,47.5,26.418H5.243A5.1,5.1,0,0,0,0,31.364L0,41.918a5.1,5.1,0,0,0,5.243,4.946H27.523a1.525,1.525,0,0,1,1.567,1.479v3.84a1.525,1.525,0,0,1-1.567,1.477H5.243A5.1,5.1,0,0,0,0,58.606V69.125a5.1,5.1,0,0,0,5.243,4.946H63.515a1.591,1.591,0,0,0,1.638-1.543V68.812a1.591,1.591,0,0,0-1.638-1.543H8.849a1.592,1.592,0,0,1-1.636-1.544V62.008a1.591,1.591,0,0,1,1.636-1.543H33.011A3.2,3.2,0,0,0,36.3,57.359V43.493a3.541,3.541,0,0,0-3.64-3.433H9.419a2.146,2.146,0,0,1-2.206-2.081V35.3a2.146,2.146,0,0,1,2.206-2.081h34.1v22.3a5.1,5.1,0,0,0,5.243,4.946H60.883a4.154,4.154,0,0,0,4.269-4.027V17.757a5.1,5.1,0,0,0-5.243-4.946H8.851a1.594,1.594,0,0,1-1.639-1.545M77.609,74.1h23.607v-.031h1.969a5.1,5.1,0,0,0,5.243-4.946V1.691A1.744,1.744,0,0,0,106.636,0h-3.627a1.744,1.744,0,0,0-1.793,1.691V52.107a1.6,1.6,0,0,1-1.648,1.553H95.66A1.611,1.611,0,0,1,94,52.1V39.054a1.46,1.46,0,0,0-1.5-1.415H88.291a1.458,1.458,0,0,0-1.5,1.415l0,16.3a5.269,5.269,0,0,0,5.416,5.109h7.359a1.6,1.6,0,0,1,1.648,1.555v3.723A1.6,1.6,0,0,1,99.568,67.3H81.226a1.6,1.6,0,0,1-1.648-1.554V1.691A1.743,1.743,0,0,0,77.786,0H74.158a1.744,1.744,0,0,0-1.793,1.691V69.156A5.1,5.1,0,0,0,77.609,74.1M88.428,30.844h3.939A1.592,1.592,0,0,0,94,29.3V1.691A1.744,1.744,0,0,0,92.21,0H88.583A1.744,1.744,0,0,0,86.79,1.691V29.3a1.593,1.593,0,0,0,1.638,1.545" transform="translate(-35.155)" fill="#45c4b0"/>
      <path id="Path_284" data-name="Path 284" d="M203.8,139.357v9.656a1.659,1.659,0,0,0,1.707,1.61h3.8a1.66,1.66,0,0,0,1.707-1.61V135.955a5.1,5.1,0,0,0-5.243-4.946h-52.7v-32.1a2.007,2.007,0,0,1,2.063-1.945h3.085a2.007,2.007,0,0,1,2.063,1.945v22.252a3.14,3.14,0,0,0,3.228,3.045h42.257a5.1,5.1,0,0,0,5.243-4.946l0-10.554a5.1,5.1,0,0,0-5.243-4.946H183.486a1.525,1.525,0,0,1-1.567-1.479V98.441a1.525,1.525,0,0,1,1.567-1.479h22.279a5.1,5.1,0,0,0,5.243-4.946V81.5a5.1,5.1,0,0,0-5.243-4.946H147.493a1.591,1.591,0,0,0-1.638,1.543v3.717a1.591,1.591,0,0,0,1.638,1.543h54.666A1.592,1.592,0,0,1,203.8,84.9v3.718a1.591,1.591,0,0,1-1.636,1.543H178a3.2,3.2,0,0,0-3.292,3.107V107.13a3.541,3.541,0,0,0,3.64,3.433H201.59a2.146,2.146,0,0,1,2.206,2.081v2.676a2.146,2.146,0,0,1-2.206,2.081h-34.1V95.1a5.1,5.1,0,0,0-5.243-4.946H150.125a4.154,4.154,0,0,0-4.269,4.027v38.681a5.1,5.1,0,0,0,5.243,4.946h51.059a1.593,1.593,0,0,1,1.638,1.545M133.4,76.521H109.793v.031h-1.969A5.1,5.1,0,0,0,102.58,81.5v67.515a1.66,1.66,0,0,0,1.707,1.61h3.8a1.66,1.66,0,0,0,1.707-1.61v-50.5a1.6,1.6,0,0,1,1.648-1.553h3.908a1.612,1.612,0,0,1,1.657,1.561v13.045a1.46,1.46,0,0,0,1.5,1.415h4.212a1.458,1.458,0,0,0,1.5-1.415l0-16.3a5.269,5.269,0,0,0-5.416-5.109h-7.359a1.6,1.6,0,0,1-1.648-1.555V84.879a1.6,1.6,0,0,1,1.648-1.554h18.342a1.6,1.6,0,0,1,1.648,1.554v64.134a1.659,1.659,0,0,0,1.707,1.61h3.8a1.66,1.66,0,0,0,1.707-1.61V81.467a5.1,5.1,0,0,0-5.243-4.946m-10.819,43.258h-3.939a1.592,1.592,0,0,0-1.636,1.543v27.691a1.66,1.66,0,0,0,1.707,1.61h3.8a1.659,1.659,0,0,0,1.707-1.61V121.324a1.593,1.593,0,0,0-1.638-1.545" transform="translate(-21.565 5.226)" fill="#45c4b0"/>
      <path id="Path_285" data-name="Path 285" d="M109.793,151.343v-9.575A1.744,1.744,0,0,0,108,140.077h-3.627a1.744,1.744,0,0,0-1.793,1.691v12.977a5.1,5.1,0,0,0,5.243,4.946h52.7v32.1a2.007,2.007,0,0,1-2.063,1.945h-3.085a2.007,2.007,0,0,1-2.063-1.945V169.539a3.14,3.14,0,0,0-3.228-3.045H107.823a5.1,5.1,0,0,0-5.243,4.946l0,10.554a5.1,5.1,0,0,0,5.243,4.946H130.1a1.525,1.525,0,0,1,1.567,1.479v3.839a1.525,1.525,0,0,1-1.567,1.479H107.823a5.1,5.1,0,0,0-5.243,4.946V209.2a5.1,5.1,0,0,0,5.243,4.946H166.1a1.591,1.591,0,0,0,1.638-1.543v-3.717a1.591,1.591,0,0,0-1.638-1.543H111.429a1.592,1.592,0,0,1-1.636-1.544v-3.718a1.591,1.591,0,0,1,1.636-1.543h24.162a3.2,3.2,0,0,0,3.292-3.107V183.57a3.541,3.541,0,0,0-3.64-3.433H112a2.146,2.146,0,0,1-2.206-2.081V175.38A2.146,2.146,0,0,1,112,173.3h34.1v22.3a5.1,5.1,0,0,0,5.243,4.946h12.124a4.154,4.154,0,0,0,4.269-4.027V157.834a5.1,5.1,0,0,0-5.243-4.946H111.43a1.593,1.593,0,0,1-1.638-1.545m70.4,62.836H203.8v-.031h1.969a5.1,5.1,0,0,0,5.243-4.946V141.768a1.744,1.744,0,0,0-1.793-1.691h-3.627a1.744,1.744,0,0,0-1.793,1.691v50.416a1.6,1.6,0,0,1-1.648,1.553H198.24a1.612,1.612,0,0,1-1.657-1.561V179.131a1.46,1.46,0,0,0-1.5-1.415h-4.212a1.458,1.458,0,0,0-1.5,1.415l0,16.3a5.269,5.269,0,0,0,5.416,5.109h7.359A1.6,1.6,0,0,1,203.8,202.1v3.723a1.6,1.6,0,0,1-1.648,1.554H183.806a1.6,1.6,0,0,1-1.648-1.554V141.768a1.743,1.743,0,0,0-1.793-1.691h-3.627a1.744,1.744,0,0,0-1.793,1.691v67.465a5.1,5.1,0,0,0,5.243,4.946m10.819-43.258h3.939a1.592,1.592,0,0,0,1.636-1.543v-27.61a1.744,1.744,0,0,0-1.793-1.691h-3.627a1.744,1.744,0,0,0-1.793,1.691v27.608a1.593,1.593,0,0,0,1.638,1.545" transform="translate(-21.565 9.566)" fill="#45c4b0"/>
      <path id="Path_286" data-name="Path 286" d="M202.157,12.811H151.1a5.1,5.1,0,0,0-5.243,4.946V56.438a4.153,4.153,0,0,0,4.269,4.027h12.123a5.1,5.1,0,0,0,5.243-4.946v-22.3h34.1A2.147,2.147,0,0,1,203.8,35.3v2.676a2.147,2.147,0,0,1-2.206,2.081H178.345a3.541,3.541,0,0,0-3.64,3.433V57.359A3.2,3.2,0,0,0,178,60.465h24.162a1.591,1.591,0,0,1,1.636,1.543v3.718a1.591,1.591,0,0,1-1.636,1.544H147.493a1.591,1.591,0,0,0-1.638,1.543v3.717a1.591,1.591,0,0,0,1.638,1.543h58.273a5.1,5.1,0,0,0,5.242-4.946V58.607a5.1,5.1,0,0,0-5.242-4.946H183.486a1.525,1.525,0,0,1-1.567-1.479v-3.84a1.525,1.525,0,0,1,1.567-1.479h22.277a5.1,5.1,0,0,0,5.243-4.946l0-10.554a5.1,5.1,0,0,0-5.242-4.946H163.508a3.14,3.14,0,0,0-3.229,3.045V51.715a2.007,2.007,0,0,1-2.062,1.946h-3.086a2.007,2.007,0,0,1-2.062-1.946v-32.1h52.7a5.1,5.1,0,0,0,5.242-4.946V1.691A1.745,1.745,0,0,0,209.215,0h-3.626A1.744,1.744,0,0,0,203.8,1.691v9.575a1.593,1.593,0,0,1-1.639,1.545M138.643,69.156V1.691A1.745,1.745,0,0,0,136.849,0h-3.626a1.745,1.745,0,0,0-1.794,1.691V65.744a1.6,1.6,0,0,1-1.647,1.554H111.439a1.6,1.6,0,0,1-1.647-1.554V62.021a1.6,1.6,0,0,1,1.647-1.555h7.36a5.269,5.269,0,0,0,5.416-5.109l0-16.3a1.461,1.461,0,0,0-1.5-1.415h-4.212a1.46,1.46,0,0,0-1.5,1.415V52.1a1.612,1.612,0,0,1-1.657,1.562h-3.909a1.6,1.6,0,0,1-1.647-1.554V1.691A1.745,1.745,0,0,0,108,0h-3.627a1.744,1.744,0,0,0-1.793,1.691V69.125a5.1,5.1,0,0,0,5.243,4.946h1.969V74.1H133.4a5.1,5.1,0,0,0,5.243-4.946M124.219,29.3V1.691A1.746,1.746,0,0,0,122.426,0H118.8a1.745,1.745,0,0,0-1.793,1.691V29.3a1.591,1.591,0,0,0,1.635,1.543h3.94a1.594,1.594,0,0,0,1.639-1.545" transform="translate(-21.565)" fill="#45c4b0"/>
    </g>
    <g id="Group_65-2" data-name="Group 65" transform="translate(853.563 653) rotate(90)" clip-path="url(#clip-path-2)">
      <path id="Path_277-2" data-name="Path 277" d="M101.217,275.461V284.5a1.615,1.615,0,0,0,1.707,1.507h3.8a1.616,1.616,0,0,0,1.707-1.507V272.277c0-2.557-2.348-4.63-5.243-4.63h-52.7V237.6a1.954,1.954,0,0,1,2.063-1.821h3.085A1.953,1.953,0,0,1,57.7,237.6v20.83a3.058,3.058,0,0,0,3.229,2.85h42.257c2.895,0,5.243-2.072,5.243-4.63l0-9.879c0-2.556-2.347-4.63-5.243-4.63H80.907a1.484,1.484,0,0,1-1.567-1.384v-3.594a1.483,1.483,0,0,1,1.567-1.384h22.279c2.9,0,5.243-2.073,5.243-4.63V221.3c0-2.557-2.348-4.63-5.243-4.63H44.914a1.549,1.549,0,0,0-1.638,1.444v3.479a1.549,1.549,0,0,0,1.638,1.444H99.58a1.55,1.55,0,0,1,1.636,1.445v3.48a1.549,1.549,0,0,1-1.636,1.444H75.419a3.118,3.118,0,0,0-3.292,2.908v12.979a3.447,3.447,0,0,0,3.64,3.214H99.011a2.089,2.089,0,0,1,2.206,1.948v2.505a2.089,2.089,0,0,1-2.206,1.948h-34.1V234.037c0-2.557-2.348-4.63-5.243-4.63H47.546a4.043,4.043,0,0,0-4.269,3.77v36.208c0,2.557,2.348,4.63,5.243,4.63H99.579a1.55,1.55,0,0,1,1.638,1.446m-70.4-58.819H7.214v.029H5.244c-2.9,0-5.243,2.073-5.243,4.63v63.2a1.615,1.615,0,0,0,1.707,1.507h3.8A1.616,1.616,0,0,0,7.214,284.5V237.231a1.56,1.56,0,0,1,1.648-1.454H12.77a1.568,1.568,0,0,1,1.657,1.461v12.211a1.421,1.421,0,0,0,1.5,1.325h4.212a1.419,1.419,0,0,0,1.5-1.325l0-15.26c0-2.64-2.424-4.782-5.416-4.782H8.862a1.561,1.561,0,0,1-1.648-1.456v-3.485a1.56,1.56,0,0,1,1.648-1.455H27.2a1.561,1.561,0,0,1,1.648,1.455V284.5a1.615,1.615,0,0,0,1.707,1.507h3.8a1.616,1.616,0,0,0,1.707-1.507V221.272c0-2.557-2.348-4.63-5.243-4.63M20,257.135H16.063a1.55,1.55,0,0,0-1.636,1.444V284.5a1.616,1.616,0,0,0,1.707,1.507h3.8a1.615,1.615,0,0,0,1.707-1.507V258.581A1.55,1.55,0,0,0,20,257.135" transform="translate(-35.155)" fill="#45c4b0"/>
      <path id="Path_278-2" data-name="Path 278" d="M7.213,290.743V281.78A1.7,1.7,0,0,0,5.42,280.2H1.793A1.7,1.7,0,0,0,0,281.78v12.147c0,2.557,2.348,4.63,5.243,4.63h52.7v30.049a1.954,1.954,0,0,1-2.063,1.821H52.792a1.953,1.953,0,0,1-2.062-1.821v-20.83a3.058,3.058,0,0,0-3.229-2.85H5.243C2.349,304.926,0,307,0,309.556l0,9.879c0,2.556,2.347,4.63,5.243,4.63H27.523a1.485,1.485,0,0,1,1.567,1.384v3.6a1.484,1.484,0,0,1-1.567,1.383H5.243c-2.9,0-5.243,2.073-5.243,4.63V344.9c0,2.557,2.348,4.63,5.243,4.63H63.515a1.549,1.549,0,0,0,1.638-1.444V344.61a1.549,1.549,0,0,0-1.638-1.444H8.849a1.55,1.55,0,0,1-1.636-1.445v-3.48A1.549,1.549,0,0,1,8.849,336.8H33.011a3.118,3.118,0,0,0,3.292-2.908V320.91a3.447,3.447,0,0,0-3.64-3.214H9.419a2.089,2.089,0,0,1-2.206-1.948v-2.5A2.089,2.089,0,0,1,9.419,311.3h34.1v20.872c0,2.557,2.348,4.63,5.243,4.63H60.883a4.043,4.043,0,0,0,4.269-3.77V296.819c0-2.557-2.348-4.63-5.243-4.63H8.851a1.551,1.551,0,0,1-1.639-1.446m70.4,58.819h23.607v-.029h1.969c2.9,0,5.243-2.073,5.243-4.63V281.78a1.7,1.7,0,0,0-1.793-1.583h-3.627a1.7,1.7,0,0,0-1.793,1.583v47.193a1.56,1.56,0,0,1-1.648,1.454H95.66A1.568,1.568,0,0,1,94,328.966V316.755a1.421,1.421,0,0,0-1.5-1.325H88.291a1.419,1.419,0,0,0-1.5,1.325l0,15.26c0,2.64,2.424,4.782,5.416,4.782h7.359a1.56,1.56,0,0,1,1.648,1.456v3.485a1.56,1.56,0,0,1-1.648,1.455H81.226a1.561,1.561,0,0,1-1.648-1.455V281.78a1.7,1.7,0,0,0-1.793-1.583H74.158a1.7,1.7,0,0,0-1.793,1.583v63.152c0,2.557,2.348,4.63,5.243,4.63m10.819-40.493h3.939A1.55,1.55,0,0,0,94,307.625V281.78A1.7,1.7,0,0,0,92.21,280.2H88.583a1.7,1.7,0,0,0-1.793,1.583v25.843a1.55,1.55,0,0,0,1.638,1.446" transform="translate(-35.155)" fill="#45c4b0"/>
      <path id="Path_279-2" data-name="Path 279" d="M111.431,274.015H162.49c2.9,0,5.243-2.073,5.243-4.63V233.177a4.042,4.042,0,0,0-4.268-3.77H151.34c-2.9,0-5.243,2.073-5.243,4.63v20.872H112a2.089,2.089,0,0,1-2.2-1.948v-2.505a2.089,2.089,0,0,1,2.2-1.948h23.245a3.446,3.446,0,0,0,3.639-3.214V232.315a3.118,3.118,0,0,0-3.292-2.908H111.429a1.549,1.549,0,0,1-1.635-1.444v-3.48a1.549,1.549,0,0,1,1.635-1.445H166.1a1.549,1.549,0,0,0,1.638-1.444v-3.479a1.549,1.549,0,0,0-1.638-1.444H107.823c-2.9,0-5.243,2.073-5.243,4.63v9.845c0,2.557,2.348,4.63,5.243,4.63H130.1a1.484,1.484,0,0,1,1.567,1.384v3.6a1.484,1.484,0,0,1-1.567,1.384H107.826c-2.9,0-5.243,2.074-5.243,4.63l0,9.879c0,2.558,2.35,4.63,5.243,4.63h42.258a3.057,3.057,0,0,0,3.229-2.85V237.6a1.953,1.953,0,0,1,2.062-1.822h3.085a1.954,1.954,0,0,1,2.063,1.822v30.049h-52.7c-2.9,0-5.243,2.073-5.243,4.63V284.5a1.617,1.617,0,0,0,1.707,1.507h3.8a1.617,1.617,0,0,0,1.708-1.507v-9.039a1.55,1.55,0,0,1,1.638-1.446m63.514-52.743V284.5a1.617,1.617,0,0,0,1.708,1.507h3.8a1.617,1.617,0,0,0,1.707-1.507V224.466a1.559,1.559,0,0,1,1.647-1.455h18.343a1.559,1.559,0,0,1,1.647,1.455v3.485a1.56,1.56,0,0,1-1.647,1.456h-7.36c-2.992,0-5.416,2.142-5.416,4.782l0,15.26a1.421,1.421,0,0,0,1.5,1.325h4.212a1.421,1.421,0,0,0,1.5-1.325V237.238a1.569,1.569,0,0,1,1.657-1.462h3.909a1.56,1.56,0,0,1,1.647,1.455V284.5a1.617,1.617,0,0,0,1.707,1.507h3.8a1.616,1.616,0,0,0,1.707-1.507V221.3c0-2.557-2.347-4.63-5.242-4.63H203.8v-.029H180.189c-2.9,0-5.243,2.073-5.243,4.63m14.424,37.309V284.5a1.617,1.617,0,0,0,1.707,1.507h3.8a1.617,1.617,0,0,0,1.707-1.507V258.579a1.549,1.549,0,0,0-1.635-1.444h-3.94a1.55,1.55,0,0,0-1.638,1.446" transform="translate(-21.565)" fill="#45c4b0"/>
      <path id="Path_280-2" data-name="Path 280" d="M202.157,292.189H151.1c-2.895,0-5.243,2.073-5.243,4.63v36.208a4.043,4.043,0,0,0,4.269,3.77h12.123c2.9,0,5.243-2.073,5.243-4.63V311.3h34.1a2.09,2.09,0,0,1,2.206,1.948v2.5a2.09,2.09,0,0,1-2.206,1.948H178.345a3.447,3.447,0,0,0-3.64,3.214v12.979A3.118,3.118,0,0,0,178,336.8h24.162a1.549,1.549,0,0,1,1.636,1.444v3.48a1.549,1.549,0,0,1-1.636,1.445H147.493a1.549,1.549,0,0,0-1.638,1.444v3.479a1.549,1.549,0,0,0,1.638,1.444h58.273c2.895,0,5.242-2.073,5.242-4.63v-9.845c0-2.558-2.348-4.63-5.242-4.63H183.486a1.485,1.485,0,0,1-1.567-1.384v-3.6a1.485,1.485,0,0,1,1.567-1.384h22.277c2.9,0,5.243-2.074,5.243-4.63l0-9.879c0-2.558-2.35-4.63-5.242-4.63H163.508a3.057,3.057,0,0,0-3.229,2.85v20.83a1.953,1.953,0,0,1-2.062,1.822h-3.086a1.953,1.953,0,0,1-2.062-1.822V298.557h52.7c2.895,0,5.242-2.073,5.242-4.63V281.78a1.7,1.7,0,0,0-1.794-1.583h-3.626a1.7,1.7,0,0,0-1.793,1.583v8.963a1.551,1.551,0,0,1-1.639,1.446m-63.514,52.743V281.78a1.7,1.7,0,0,0-1.794-1.583h-3.626a1.7,1.7,0,0,0-1.794,1.583v59.958a1.559,1.559,0,0,1-1.647,1.455H111.439a1.559,1.559,0,0,1-1.647-1.455v-3.485a1.56,1.56,0,0,1,1.647-1.456h7.36c2.992,0,5.416-2.142,5.416-4.782l0-15.26a1.422,1.422,0,0,0-1.5-1.325h-4.212a1.421,1.421,0,0,0-1.5,1.325v12.211a1.569,1.569,0,0,1-1.657,1.462h-3.909a1.56,1.56,0,0,1-1.647-1.455V281.78A1.7,1.7,0,0,0,108,280.2h-3.627a1.7,1.7,0,0,0-1.793,1.583V344.9c0,2.557,2.348,4.63,5.243,4.63h1.969v.029H133.4c2.9,0,5.243-2.073,5.243-4.63m-14.423-37.309V281.78a1.7,1.7,0,0,0-1.794-1.583H118.8a1.7,1.7,0,0,0-1.793,1.583v25.845a1.549,1.549,0,0,0,1.635,1.444h3.94a1.551,1.551,0,0,0,1.639-1.446" transform="translate(-21.565)" fill="#45c4b0"/>
      <path id="Path_281-2" data-name="Path 281" d="M8.851,133.9H59.91c2.9,0,5.243-2.073,5.243-4.63V93.057a4.043,4.043,0,0,0-4.268-3.77H48.759c-2.9,0-5.242,2.073-5.242,4.63v20.872H9.419a2.09,2.09,0,0,1-2.206-1.948v-2.505a2.09,2.09,0,0,1,2.206-1.948H32.663a3.447,3.447,0,0,0,3.64-3.214V92.195a3.118,3.118,0,0,0-3.292-2.908H8.849a1.549,1.549,0,0,1-1.636-1.444v-3.48a1.55,1.55,0,0,1,1.636-1.445H63.515a1.549,1.549,0,0,0,1.638-1.444V78a1.549,1.549,0,0,0-1.638-1.444H5.243c-2.9,0-5.243,2.073-5.243,4.63v9.845c0,2.558,2.348,4.63,5.243,4.63H27.523A1.484,1.484,0,0,1,29.09,97.04v3.6a1.484,1.484,0,0,1-1.567,1.384H5.246c-2.9,0-5.243,2.074-5.243,4.63l0,9.879c0,2.558,2.35,4.63,5.243,4.63H47.5a3.057,3.057,0,0,0,3.229-2.85V97.478a1.953,1.953,0,0,1,2.062-1.822h3.085a1.954,1.954,0,0,1,2.063,1.822v30.049H5.243c-2.9,0-5.243,2.073-5.243,4.63V144.38a1.616,1.616,0,0,0,1.707,1.507h3.8a1.615,1.615,0,0,0,1.707-1.507v-9.039A1.551,1.551,0,0,1,8.851,133.9M72.366,81.152V144.38a1.616,1.616,0,0,0,1.707,1.507h3.8a1.616,1.616,0,0,0,1.707-1.507V84.346a1.56,1.56,0,0,1,1.647-1.455H99.569a1.56,1.56,0,0,1,1.647,1.455v3.485a1.56,1.56,0,0,1-1.647,1.456h-7.36c-2.992,0-5.416,2.142-5.416,4.782l0,15.26a1.421,1.421,0,0,0,1.5,1.325H92.5a1.421,1.421,0,0,0,1.5-1.325V97.118a1.569,1.569,0,0,1,1.657-1.462h3.909a1.56,1.56,0,0,1,1.647,1.455V144.38a1.616,1.616,0,0,0,1.707,1.507h3.8a1.615,1.615,0,0,0,1.707-1.507v-63.2c0-2.557-2.347-4.63-5.243-4.63h-1.969v-.029H77.609c-2.9,0-5.243,2.073-5.243,4.63M86.79,118.461V144.38a1.616,1.616,0,0,0,1.707,1.507h3.8A1.616,1.616,0,0,0,94,144.38V118.459a1.549,1.549,0,0,0-1.635-1.444h-3.94a1.55,1.55,0,0,0-1.638,1.446" transform="translate(-35.155)" fill="#45c4b0"/>
      <path id="Path_282-2" data-name="Path 282" d="M99.578,152.069H48.52c-2.9,0-5.243,2.073-5.243,4.63v36.208a4.042,4.042,0,0,0,4.268,3.77H59.669c2.9,0,5.243-2.073,5.243-4.63V171.175h34.1a2.09,2.09,0,0,1,2.206,1.948v2.505a2.09,2.09,0,0,1-2.206,1.948H75.766a3.447,3.447,0,0,0-3.64,3.214v12.979a3.118,3.118,0,0,0,3.292,2.908H99.58a1.55,1.55,0,0,1,1.636,1.444v3.48a1.55,1.55,0,0,1-1.636,1.445H44.914a1.549,1.549,0,0,0-1.638,1.444v3.479a1.549,1.549,0,0,0,1.638,1.444h58.272c2.9,0,5.243-2.073,5.243-4.63v-9.845c0-2.557-2.348-4.63-5.243-4.63H80.907a1.484,1.484,0,0,1-1.567-1.384v-3.6a1.484,1.484,0,0,1,1.567-1.384h22.277c2.9,0,5.243-2.074,5.243-4.63l0-9.879c0-2.558-2.35-4.63-5.243-4.63H60.929a3.057,3.057,0,0,0-3.229,2.85v20.83a1.953,1.953,0,0,1-2.062,1.822H52.553a1.954,1.954,0,0,1-2.063-1.822V158.437h52.7c2.9,0,5.243-2.073,5.243-4.63V141.66a1.7,1.7,0,0,0-1.793-1.583h-3.627a1.7,1.7,0,0,0-1.793,1.583v8.963a1.551,1.551,0,0,1-1.639,1.446M36.064,204.812V141.66a1.7,1.7,0,0,0-1.794-1.583H30.644a1.7,1.7,0,0,0-1.794,1.583v59.958a1.559,1.559,0,0,1-1.647,1.455H8.86a1.559,1.559,0,0,1-1.647-1.455v-3.485a1.56,1.56,0,0,1,1.647-1.456h7.36c2.992,0,5.416-2.142,5.416-4.782l0-15.26a1.421,1.421,0,0,0-1.5-1.325H15.927a1.421,1.421,0,0,0-1.5,1.325v12.211a1.569,1.569,0,0,1-1.657,1.462H8.86a1.56,1.56,0,0,1-1.647-1.455V141.66a1.7,1.7,0,0,0-1.793-1.583H1.794A1.7,1.7,0,0,0,0,141.66v63.123c0,2.557,2.348,4.63,5.243,4.63H7.214v.029H30.82c2.9,0,5.243-2.073,5.243-4.63M21.639,167.5V141.66a1.7,1.7,0,0,0-1.793-1.583H16.219a1.7,1.7,0,0,0-1.793,1.583v25.845a1.549,1.549,0,0,0,1.635,1.444H20a1.55,1.55,0,0,0,1.638-1.446" transform="translate(-35.155)" fill="#45c4b0"/>
      <path id="Path_283-2" data-name="Path 283" d="M7.213,10.546V1.583A1.7,1.7,0,0,0,5.42,0H1.793A1.7,1.7,0,0,0,0,1.583V13.73c0,2.557,2.348,4.63,5.243,4.63h52.7V48.409a1.954,1.954,0,0,1-2.063,1.821H52.792a1.953,1.953,0,0,1-2.062-1.821V27.579a3.058,3.058,0,0,0-3.229-2.85H5.243C2.349,24.729,0,26.8,0,29.359l0,9.879c0,2.556,2.347,4.63,5.243,4.63H27.523a1.485,1.485,0,0,1,1.567,1.384v3.6a1.484,1.484,0,0,1-1.567,1.383H5.243C2.348,50.23,0,52.3,0,54.86v9.846c0,2.557,2.348,4.63,5.243,4.63H63.515a1.549,1.549,0,0,0,1.638-1.444V64.413a1.549,1.549,0,0,0-1.638-1.444H8.849a1.55,1.55,0,0,1-1.636-1.445v-3.48A1.549,1.549,0,0,1,8.849,56.6H33.011A3.118,3.118,0,0,0,36.3,53.692V40.713a3.447,3.447,0,0,0-3.64-3.214H9.419a2.089,2.089,0,0,1-2.206-1.948v-2.5A2.089,2.089,0,0,1,9.419,31.1h34.1V51.97c0,2.557,2.348,4.63,5.243,4.63H60.883a4.043,4.043,0,0,0,4.269-3.77V16.622c0-2.557-2.348-4.63-5.243-4.63H8.851a1.551,1.551,0,0,1-1.639-1.446m70.4,58.819h23.607v-.029h1.969c2.9,0,5.243-2.073,5.243-4.63V1.583A1.7,1.7,0,0,0,106.636,0h-3.627a1.7,1.7,0,0,0-1.793,1.583V48.776a1.56,1.56,0,0,1-1.648,1.454H95.66A1.568,1.568,0,0,1,94,48.769V36.558a1.421,1.421,0,0,0-1.5-1.325H88.291a1.419,1.419,0,0,0-1.5,1.325l0,15.26c0,2.64,2.424,4.782,5.416,4.782h7.359a1.56,1.56,0,0,1,1.648,1.456v3.485A1.56,1.56,0,0,1,99.568,63H81.226a1.561,1.561,0,0,1-1.648-1.455V1.583A1.7,1.7,0,0,0,77.786,0H74.158a1.7,1.7,0,0,0-1.793,1.583V64.735c0,2.557,2.348,4.63,5.243,4.63M88.428,28.872h3.939A1.55,1.55,0,0,0,94,27.428V1.583A1.7,1.7,0,0,0,92.21,0H88.583A1.7,1.7,0,0,0,86.79,1.583V27.426a1.55,1.55,0,0,0,1.638,1.446" transform="translate(-35.155)" fill="#45c4b0"/>
      <path id="Path_284-2" data-name="Path 284" d="M203.8,135.34v9.039a1.615,1.615,0,0,0,1.707,1.507h3.8a1.616,1.616,0,0,0,1.707-1.507V132.156c0-2.557-2.348-4.63-5.243-4.63h-52.7V97.477a1.954,1.954,0,0,1,2.063-1.821h3.085a1.954,1.954,0,0,1,2.063,1.821v20.83a3.056,3.056,0,0,0,3.228,2.85h42.257c2.895,0,5.243-2.072,5.243-4.63l0-9.879c0-2.556-2.347-4.63-5.243-4.63H183.486a1.485,1.485,0,0,1-1.567-1.384V97.04a1.484,1.484,0,0,1,1.567-1.384h22.279c2.9,0,5.243-2.073,5.243-4.63V81.18c0-2.557-2.348-4.63-5.243-4.63H147.493a1.549,1.549,0,0,0-1.638,1.444v3.479a1.549,1.549,0,0,0,1.638,1.444h54.666a1.55,1.55,0,0,1,1.636,1.445v3.48a1.549,1.549,0,0,1-1.636,1.444H178a3.118,3.118,0,0,0-3.292,2.908v12.979a3.447,3.447,0,0,0,3.64,3.214H201.59a2.089,2.089,0,0,1,2.206,1.948v2.5a2.089,2.089,0,0,1-2.206,1.948h-34.1V93.916c0-2.557-2.348-4.63-5.243-4.63H150.125a4.043,4.043,0,0,0-4.269,3.77v36.208c0,2.557,2.348,4.63,5.243,4.63h51.059a1.55,1.55,0,0,1,1.638,1.446M133.4,76.521H109.793v.029h-1.969c-2.9,0-5.243,2.073-5.243,4.63v63.2a1.616,1.616,0,0,0,1.707,1.507h3.8a1.616,1.616,0,0,0,1.707-1.507V97.11a1.56,1.56,0,0,1,1.648-1.454h3.908a1.569,1.569,0,0,1,1.657,1.461v12.211a1.421,1.421,0,0,0,1.5,1.325h4.212a1.419,1.419,0,0,0,1.5-1.325l0-15.26c0-2.64-2.424-4.782-5.416-4.782h-7.359a1.561,1.561,0,0,1-1.648-1.456V84.345a1.56,1.56,0,0,1,1.648-1.455h18.342a1.561,1.561,0,0,1,1.648,1.455v60.034a1.615,1.615,0,0,0,1.707,1.507h3.8a1.616,1.616,0,0,0,1.707-1.507V81.151c0-2.557-2.348-4.63-5.243-4.63m-10.819,40.493h-3.939a1.55,1.55,0,0,0-1.636,1.444v25.921a1.616,1.616,0,0,0,1.707,1.507h3.8a1.615,1.615,0,0,0,1.707-1.507V118.46a1.55,1.55,0,0,0-1.638-1.446" transform="translate(-21.565)" fill="#45c4b0"/>
      <path id="Path_285-2" data-name="Path 285" d="M109.793,150.623V141.66A1.7,1.7,0,0,0,108,140.077h-3.627a1.7,1.7,0,0,0-1.793,1.583v12.147c0,2.557,2.348,4.63,5.243,4.63h52.7v30.049a1.954,1.954,0,0,1-2.063,1.821h-3.085a1.954,1.954,0,0,1-2.063-1.821v-20.83a3.056,3.056,0,0,0-3.228-2.85H107.823c-2.895,0-5.243,2.072-5.243,4.63l0,9.879c0,2.556,2.347,4.63,5.243,4.63H130.1a1.485,1.485,0,0,1,1.567,1.384v3.594a1.484,1.484,0,0,1-1.567,1.384H107.823c-2.9,0-5.243,2.073-5.243,4.63v9.846c0,2.557,2.348,4.63,5.243,4.63H166.1a1.549,1.549,0,0,0,1.638-1.444V204.49a1.549,1.549,0,0,0-1.638-1.444H111.429a1.55,1.55,0,0,1-1.636-1.445v-3.48a1.549,1.549,0,0,1,1.636-1.444h24.162a3.118,3.118,0,0,0,3.292-2.908V180.79a3.447,3.447,0,0,0-3.64-3.214H112a2.089,2.089,0,0,1-2.206-1.948v-2.505A2.089,2.089,0,0,1,112,171.175h34.1v20.872c0,2.557,2.348,4.63,5.243,4.63h12.124a4.043,4.043,0,0,0,4.269-3.77V156.7c0-2.557-2.348-4.63-5.243-4.63H111.43a1.55,1.55,0,0,1-1.638-1.446m70.4,58.819H203.8v-.029h1.969c2.9,0,5.243-2.073,5.243-4.63V141.66a1.7,1.7,0,0,0-1.793-1.583h-3.627a1.7,1.7,0,0,0-1.793,1.583v47.193a1.56,1.56,0,0,1-1.648,1.454H198.24a1.569,1.569,0,0,1-1.657-1.461V176.635a1.421,1.421,0,0,0-1.5-1.325h-4.212a1.419,1.419,0,0,0-1.5,1.325l0,15.26c0,2.64,2.424,4.782,5.416,4.782h7.359a1.561,1.561,0,0,1,1.648,1.456v3.485a1.56,1.56,0,0,1-1.648,1.455H183.806a1.561,1.561,0,0,1-1.648-1.455V141.66a1.7,1.7,0,0,0-1.793-1.583h-3.627a1.7,1.7,0,0,0-1.793,1.583v63.152c0,2.557,2.348,4.63,5.243,4.63m10.819-40.493h3.939a1.55,1.55,0,0,0,1.636-1.444V141.66a1.7,1.7,0,0,0-1.793-1.583h-3.627a1.7,1.7,0,0,0-1.793,1.583V167.5a1.55,1.55,0,0,0,1.638,1.446" transform="translate(-21.565)" fill="#45c4b0"/>
      <path id="Path_286-2" data-name="Path 286" d="M202.157,11.992H151.1c-2.895,0-5.243,2.073-5.243,4.63V52.83a4.043,4.043,0,0,0,4.269,3.77h12.123c2.9,0,5.243-2.073,5.243-4.63V31.1h34.1a2.09,2.09,0,0,1,2.206,1.948v2.5A2.09,2.09,0,0,1,201.59,37.5H178.345a3.447,3.447,0,0,0-3.64,3.214V53.692A3.118,3.118,0,0,0,178,56.6h24.162a1.548,1.548,0,0,1,1.636,1.444v3.48a1.549,1.549,0,0,1-1.636,1.445H147.493a1.549,1.549,0,0,0-1.638,1.444v3.479a1.549,1.549,0,0,0,1.638,1.444h58.273c2.895,0,5.242-2.073,5.242-4.63V54.861c0-2.557-2.348-4.63-5.242-4.63H183.486a1.485,1.485,0,0,1-1.567-1.384v-3.6a1.485,1.485,0,0,1,1.567-1.384h22.277c2.9,0,5.243-2.074,5.243-4.63l0-9.879c0-2.558-2.35-4.63-5.242-4.63H163.508a3.057,3.057,0,0,0-3.229,2.85v20.83a1.953,1.953,0,0,1-2.062,1.822h-3.086a1.953,1.953,0,0,1-2.062-1.822V18.36h52.7c2.895,0,5.242-2.073,5.242-4.63V1.583A1.7,1.7,0,0,0,209.215,0h-3.626A1.7,1.7,0,0,0,203.8,1.583v8.963a1.551,1.551,0,0,1-1.639,1.446M138.643,64.735V1.583A1.7,1.7,0,0,0,136.849,0h-3.626a1.7,1.7,0,0,0-1.794,1.583V61.541A1.559,1.559,0,0,1,129.782,63H111.439a1.559,1.559,0,0,1-1.647-1.455V58.056a1.56,1.56,0,0,1,1.647-1.456h7.36c2.992,0,5.416-2.142,5.416-4.782l0-15.26a1.422,1.422,0,0,0-1.5-1.325h-4.212a1.421,1.421,0,0,0-1.5,1.325V48.769a1.569,1.569,0,0,1-1.657,1.462h-3.909a1.56,1.56,0,0,1-1.647-1.455V1.583A1.7,1.7,0,0,0,108,0h-3.627a1.7,1.7,0,0,0-1.793,1.583V64.706c0,2.557,2.348,4.63,5.243,4.63h1.969v.029H133.4c2.9,0,5.243-2.073,5.243-4.63M124.219,27.426V1.583A1.7,1.7,0,0,0,122.426,0H118.8a1.7,1.7,0,0,0-1.793,1.583V27.428a1.549,1.549,0,0,0,1.635,1.444h3.94a1.551,1.551,0,0,0,1.639-1.446" transform="translate(-21.565)" fill="#45c4b0"/>
    </g>
    <g id="Group_65-3" data-name="Group 65" transform="translate(503.563 653) rotate(90)" clip-path="url(#clip-path-3)">
      <path id="Path_277-3" data-name="Path 277" d="M101.217,277.985v9.427a1.642,1.642,0,0,0,1.707,1.572h3.8a1.643,1.643,0,0,0,1.707-1.572V274.664a5.049,5.049,0,0,0-5.243-4.829h-52.7V238.5a1.986,1.986,0,0,1,2.063-1.9h3.085a1.985,1.985,0,0,1,2.062,1.9v21.724a3.109,3.109,0,0,0,3.229,2.972h42.257a5.049,5.049,0,0,0,5.243-4.829l0-10.3a5.049,5.049,0,0,0-5.243-4.829H80.907a1.509,1.509,0,0,1-1.567-1.443v-3.748a1.508,1.508,0,0,1,1.567-1.443h22.279a5.049,5.049,0,0,0,5.243-4.829V221.5a5.049,5.049,0,0,0-5.243-4.829H44.914a1.575,1.575,0,0,0-1.638,1.506v3.628a1.575,1.575,0,0,0,1.638,1.506H99.58a1.576,1.576,0,0,1,1.636,1.507v3.629a1.575,1.575,0,0,1-1.636,1.506H75.419a3.171,3.171,0,0,0-3.292,3.033v13.536a3.5,3.5,0,0,0,3.64,3.352H99.011a2.124,2.124,0,0,1,2.206,2.032v2.612a2.124,2.124,0,0,1-2.206,2.032h-34.1V234.783a5.049,5.049,0,0,0-5.243-4.829H47.546a4.111,4.111,0,0,0-4.269,3.932v37.762a5.049,5.049,0,0,0,5.243,4.829H99.579a1.576,1.576,0,0,1,1.638,1.508m-70.4-61.343H7.214v.03H5.244A5.049,5.049,0,0,0,0,221.5v65.911a1.642,1.642,0,0,0,1.707,1.572h3.8a1.643,1.643,0,0,0,1.707-1.572v-49.3A1.586,1.586,0,0,1,8.862,236.6H12.77a1.594,1.594,0,0,1,1.657,1.524v12.735a1.445,1.445,0,0,0,1.5,1.382h4.212a1.443,1.443,0,0,0,1.5-1.382l0-15.915a5.215,5.215,0,0,0-5.416-4.987H8.862a1.587,1.587,0,0,1-1.648-1.518V224.8a1.587,1.587,0,0,1,1.648-1.517H27.2a1.587,1.587,0,0,1,1.648,1.517v62.61a1.642,1.642,0,0,0,1.707,1.572h3.8a1.643,1.643,0,0,0,1.707-1.572V221.471a5.049,5.049,0,0,0-5.243-4.829M20,258.873H16.063a1.576,1.576,0,0,0-1.636,1.506v27.033a1.643,1.643,0,0,0,1.707,1.572h3.8a1.642,1.642,0,0,0,1.707-1.572V260.381A1.576,1.576,0,0,0,20,258.873" transform="translate(-35.155 9.297)" fill="#45c4b0"/>
      <path id="Path_278-3" data-name="Path 278" d="M7.213,291.2v-9.348A1.725,1.725,0,0,0,5.42,280.2H1.793A1.726,1.726,0,0,0,0,281.848v12.668a5.049,5.049,0,0,0,5.243,4.829h52.7v31.338a1.986,1.986,0,0,1-2.063,1.9H52.792a1.985,1.985,0,0,1-2.062-1.9V308.96a3.109,3.109,0,0,0-3.229-2.972H5.243A5.049,5.049,0,0,0,0,310.816l0,10.3a5.049,5.049,0,0,0,5.243,4.829H27.523a1.51,1.51,0,0,1,1.567,1.443v3.749a1.509,1.509,0,0,1-1.567,1.442H5.243A5.049,5.049,0,0,0,0,337.411V347.68a5.049,5.049,0,0,0,5.243,4.829H63.515A1.575,1.575,0,0,0,65.153,351v-3.628a1.575,1.575,0,0,0-1.638-1.506H8.849a1.576,1.576,0,0,1-1.636-1.507v-3.629a1.575,1.575,0,0,1,1.636-1.506H33.011a3.171,3.171,0,0,0,3.292-3.033V322.657a3.5,3.5,0,0,0-3.64-3.352H9.419a2.124,2.124,0,0,1-2.206-2.032v-2.612a2.124,2.124,0,0,1,2.206-2.032h34.1V334.4a5.049,5.049,0,0,0,5.243,4.829H60.883a4.111,4.111,0,0,0,4.269-3.932V297.532A5.049,5.049,0,0,0,59.91,292.7H8.851A1.577,1.577,0,0,1,7.213,291.2m70.4,61.343h23.607v-.03h1.969a5.049,5.049,0,0,0,5.243-4.829V281.848a1.726,1.726,0,0,0-1.793-1.651h-3.627a1.726,1.726,0,0,0-1.793,1.651v49.218a1.586,1.586,0,0,1-1.648,1.516H95.66A1.594,1.594,0,0,1,94,331.059V318.324a1.445,1.445,0,0,0-1.5-1.382H88.291a1.443,1.443,0,0,0-1.5,1.382l0,15.915a5.215,5.215,0,0,0,5.416,4.987h7.359a1.586,1.586,0,0,1,1.648,1.518v3.635a1.587,1.587,0,0,1-1.648,1.517H81.226a1.587,1.587,0,0,1-1.648-1.517V281.848a1.725,1.725,0,0,0-1.793-1.651H74.158a1.726,1.726,0,0,0-1.793,1.651V347.71a5.049,5.049,0,0,0,5.243,4.829m10.819-42.231h3.939A1.576,1.576,0,0,0,94,308.8V281.848A1.726,1.726,0,0,0,92.21,280.2H88.583a1.726,1.726,0,0,0-1.793,1.651V308.8a1.576,1.576,0,0,0,1.638,1.508" transform="translate(-35.155 12.024)" fill="#45c4b0"/>
      <path id="Path_279-3" data-name="Path 279" d="M111.431,276.477H162.49a5.049,5.049,0,0,0,5.243-4.829V233.887a4.11,4.11,0,0,0-4.268-3.932H151.34a5.049,5.049,0,0,0-5.243,4.829v21.768H112a2.124,2.124,0,0,1-2.2-2.032v-2.612a2.124,2.124,0,0,1,2.2-2.032h23.245a3.5,3.5,0,0,0,3.639-3.352V232.988a3.17,3.17,0,0,0-3.292-3.033H111.429a1.575,1.575,0,0,1-1.635-1.506v-3.629a1.575,1.575,0,0,1,1.635-1.507H166.1a1.575,1.575,0,0,0,1.638-1.506v-3.628a1.575,1.575,0,0,0-1.638-1.506H107.823a5.049,5.049,0,0,0-5.243,4.829v10.267a5.049,5.049,0,0,0,5.243,4.829H130.1a1.509,1.509,0,0,1,1.567,1.443v3.749a1.509,1.509,0,0,1-1.567,1.443H107.826a5.05,5.05,0,0,0-5.243,4.829l0,10.3a5.05,5.05,0,0,0,5.243,4.829h42.258a3.108,3.108,0,0,0,3.229-2.972V238.5a1.986,1.986,0,0,1,2.062-1.9h3.085a1.986,1.986,0,0,1,2.063,1.9v31.339h-52.7a5.049,5.049,0,0,0-5.243,4.829v12.748a1.644,1.644,0,0,0,1.707,1.572h3.8a1.644,1.644,0,0,0,1.708-1.572v-9.427a1.576,1.576,0,0,1,1.638-1.508m63.514-55.006v65.941a1.644,1.644,0,0,0,1.708,1.572h3.8a1.644,1.644,0,0,0,1.707-1.572V224.8a1.586,1.586,0,0,1,1.647-1.517h18.343A1.586,1.586,0,0,1,203.8,224.8v3.635a1.586,1.586,0,0,1-1.647,1.518h-7.36a5.215,5.215,0,0,0-5.416,4.987l0,15.915a1.445,1.445,0,0,0,1.5,1.382h4.212a1.445,1.445,0,0,0,1.5-1.382V238.122a1.6,1.6,0,0,1,1.657-1.525h3.909a1.586,1.586,0,0,1,1.647,1.517v49.3a1.644,1.644,0,0,0,1.707,1.572h3.8a1.643,1.643,0,0,0,1.707-1.572V221.5a5.048,5.048,0,0,0-5.242-4.829H203.8v-.03H180.189a5.049,5.049,0,0,0-5.243,4.829m14.424,38.91v27.031a1.644,1.644,0,0,0,1.707,1.572h3.8a1.644,1.644,0,0,0,1.707-1.572V260.379a1.575,1.575,0,0,0-1.635-1.506h-3.94a1.576,1.576,0,0,0-1.638,1.508" transform="translate(-21.565 9.297)" fill="#45c4b0"/>
      <path id="Path_280-3" data-name="Path 280" d="M202.157,292.7H151.1a5.05,5.05,0,0,0-5.243,4.829v37.762a4.111,4.111,0,0,0,4.269,3.932h12.123a5.048,5.048,0,0,0,5.243-4.829V312.63h34.1a2.125,2.125,0,0,1,2.206,2.032v2.612a2.125,2.125,0,0,1-2.206,2.032H178.345a3.5,3.5,0,0,0-3.64,3.352v13.536A3.17,3.17,0,0,0,178,339.226h24.162a1.575,1.575,0,0,1,1.636,1.506v3.629a1.575,1.575,0,0,1-1.636,1.507H147.493a1.575,1.575,0,0,0-1.638,1.506V351a1.575,1.575,0,0,0,1.638,1.506h58.273a5.049,5.049,0,0,0,5.242-4.829V337.412a5.048,5.048,0,0,0-5.242-4.829H183.486a1.51,1.51,0,0,1-1.567-1.443v-3.749a1.51,1.51,0,0,1,1.567-1.443h22.277a5.05,5.05,0,0,0,5.243-4.829l0-10.3a5.049,5.049,0,0,0-5.242-4.829H163.508a3.108,3.108,0,0,0-3.229,2.972v21.724a1.986,1.986,0,0,1-2.062,1.9h-3.086a1.986,1.986,0,0,1-2.062-1.9V299.345h52.7a5.049,5.049,0,0,0,5.242-4.829V281.848a1.727,1.727,0,0,0-1.794-1.651h-3.626a1.726,1.726,0,0,0-1.793,1.651V291.2a1.577,1.577,0,0,1-1.639,1.508M138.643,347.71V281.848a1.727,1.727,0,0,0-1.794-1.651h-3.626a1.727,1.727,0,0,0-1.794,1.651v62.531a1.586,1.586,0,0,1-1.647,1.517H111.439a1.586,1.586,0,0,1-1.647-1.517v-3.635a1.586,1.586,0,0,1,1.647-1.518h7.36a5.215,5.215,0,0,0,5.416-4.987l0-15.915a1.446,1.446,0,0,0-1.5-1.382h-4.212a1.445,1.445,0,0,0-1.5,1.382v12.735a1.6,1.6,0,0,1-1.657,1.525h-3.909a1.586,1.586,0,0,1-1.647-1.517V281.848A1.727,1.727,0,0,0,108,280.2h-3.627a1.726,1.726,0,0,0-1.793,1.651V347.68a5.049,5.049,0,0,0,5.243,4.829h1.969v.03H133.4a5.049,5.049,0,0,0,5.243-4.829M124.219,308.8V281.848a1.728,1.728,0,0,0-1.794-1.651H118.8a1.727,1.727,0,0,0-1.793,1.651V308.8a1.575,1.575,0,0,0,1.635,1.506h3.94a1.577,1.577,0,0,0,1.639-1.508" transform="translate(-21.565 12.024)" fill="#45c4b0"/>
      <path id="Path_281-3" data-name="Path 281" d="M8.851,136.357H59.91a5.049,5.049,0,0,0,5.243-4.829V93.767a4.111,4.111,0,0,0-4.268-3.932H48.759a5.048,5.048,0,0,0-5.242,4.829v21.768H9.419A2.125,2.125,0,0,1,7.213,114.4v-2.613a2.125,2.125,0,0,1,2.206-2.032H32.663A3.5,3.5,0,0,0,36.3,106.4V92.868a3.17,3.17,0,0,0-3.292-3.033H8.849a1.575,1.575,0,0,1-1.636-1.506V84.7a1.576,1.576,0,0,1,1.636-1.507H63.515a1.575,1.575,0,0,0,1.638-1.506V78.058a1.575,1.575,0,0,0-1.638-1.506H5.243A5.049,5.049,0,0,0,0,81.381V91.648a5.048,5.048,0,0,0,5.243,4.829H27.523A1.509,1.509,0,0,1,29.09,97.92v3.749a1.509,1.509,0,0,1-1.567,1.443H5.246A5.05,5.05,0,0,0,0,107.942l0,10.3a5.05,5.05,0,0,0,5.243,4.829H47.5A3.108,3.108,0,0,0,50.73,120.1V98.377a1.986,1.986,0,0,1,2.062-1.9h3.085a1.986,1.986,0,0,1,2.063,1.9v31.338H5.243A5.049,5.049,0,0,0,0,134.544v12.748a1.643,1.643,0,0,0,1.707,1.572h3.8a1.642,1.642,0,0,0,1.707-1.572v-9.427a1.577,1.577,0,0,1,1.639-1.508M72.366,81.351v65.941a1.643,1.643,0,0,0,1.707,1.572h3.8a1.643,1.643,0,0,0,1.707-1.572V84.682a1.586,1.586,0,0,1,1.647-1.517H99.569a1.586,1.586,0,0,1,1.647,1.517v3.635a1.586,1.586,0,0,1-1.647,1.518h-7.36a5.215,5.215,0,0,0-5.416,4.987l0,15.915a1.445,1.445,0,0,0,1.5,1.382H92.5a1.445,1.445,0,0,0,1.5-1.382V98a1.6,1.6,0,0,1,1.657-1.525h3.909a1.586,1.586,0,0,1,1.647,1.517v49.3a1.643,1.643,0,0,0,1.707,1.572h3.8a1.642,1.642,0,0,0,1.707-1.572V81.381a5.048,5.048,0,0,0-5.243-4.829h-1.969v-.03H77.609a5.049,5.049,0,0,0-5.243,4.829m14.424,38.91v27.031a1.643,1.643,0,0,0,1.707,1.572h3.8A1.643,1.643,0,0,0,94,147.292V120.259a1.575,1.575,0,0,0-1.635-1.506h-3.94a1.576,1.576,0,0,0-1.638,1.508" transform="translate(-35.155 3.284)" fill="#45c4b0"/>
      <path id="Path_282-3" data-name="Path 282" d="M99.578,152.584H48.52a5.049,5.049,0,0,0-5.243,4.829v37.762a4.11,4.11,0,0,0,4.268,3.932H59.669a5.049,5.049,0,0,0,5.243-4.829V172.51h34.1a2.125,2.125,0,0,1,2.206,2.032v2.613a2.125,2.125,0,0,1-2.206,2.032H75.766a3.5,3.5,0,0,0-3.64,3.352v13.536a3.17,3.17,0,0,0,3.292,3.033H99.58a1.576,1.576,0,0,1,1.636,1.506v3.629a1.576,1.576,0,0,1-1.636,1.507H44.914a1.575,1.575,0,0,0-1.638,1.506v3.628a1.575,1.575,0,0,0,1.638,1.506h58.272a5.049,5.049,0,0,0,5.243-4.829V197.292a5.049,5.049,0,0,0-5.243-4.829H80.907a1.509,1.509,0,0,1-1.567-1.443v-3.749a1.509,1.509,0,0,1,1.567-1.443h22.277A5.05,5.05,0,0,0,108.427,181l0-10.3a5.05,5.05,0,0,0-5.243-4.829H60.929a3.108,3.108,0,0,0-3.229,2.972v21.724a1.986,1.986,0,0,1-2.062,1.9H52.553a1.986,1.986,0,0,1-2.063-1.9V159.225h52.7a5.049,5.049,0,0,0,5.243-4.829V141.728a1.727,1.727,0,0,0-1.793-1.651h-3.627a1.726,1.726,0,0,0-1.793,1.651v9.348a1.577,1.577,0,0,1-1.639,1.508M36.064,207.59V141.728a1.727,1.727,0,0,0-1.794-1.651H30.644a1.727,1.727,0,0,0-1.794,1.651v62.531a1.586,1.586,0,0,1-1.647,1.517H8.86a1.586,1.586,0,0,1-1.647-1.517v-3.635a1.586,1.586,0,0,1,1.647-1.518h7.36a5.215,5.215,0,0,0,5.416-4.987l0-15.915a1.445,1.445,0,0,0-1.5-1.382H15.927a1.445,1.445,0,0,0-1.5,1.382v12.735a1.6,1.6,0,0,1-1.657,1.525H8.86a1.586,1.586,0,0,1-1.647-1.517V141.728a1.727,1.727,0,0,0-1.793-1.651H1.794A1.726,1.726,0,0,0,0,141.728V207.56a5.049,5.049,0,0,0,5.243,4.829H7.214v.03H30.82a5.049,5.049,0,0,0,5.243-4.829M21.639,168.68V141.728a1.727,1.727,0,0,0-1.793-1.651H16.219a1.727,1.727,0,0,0-1.793,1.651v26.954a1.575,1.575,0,0,0,1.635,1.506H20a1.576,1.576,0,0,0,1.638-1.508" transform="translate(-35.155 6.011)" fill="#45c4b0"/>
      <path id="Path_283-3" data-name="Path 283" d="M7.213,11V1.651A1.725,1.725,0,0,0,5.42,0H1.793A1.726,1.726,0,0,0,0,1.651V14.319a5.049,5.049,0,0,0,5.243,4.829h52.7V50.486a1.986,1.986,0,0,1-2.063,1.9H52.792a1.985,1.985,0,0,1-2.062-1.9V28.762A3.109,3.109,0,0,0,47.5,25.79H5.243A5.049,5.049,0,0,0,0,30.619l0,10.3A5.049,5.049,0,0,0,5.246,45.75H27.523a1.51,1.51,0,0,1,1.567,1.443v3.749a1.509,1.509,0,0,1-1.567,1.442H5.243A5.049,5.049,0,0,0,0,57.214V67.483a5.049,5.049,0,0,0,5.243,4.829H63.515a1.575,1.575,0,0,0,1.638-1.506V67.177a1.575,1.575,0,0,0-1.638-1.506H8.849a1.576,1.576,0,0,1-1.636-1.507V60.535a1.575,1.575,0,0,1,1.636-1.506H33.011A3.171,3.171,0,0,0,36.3,56V42.46a3.5,3.5,0,0,0-3.64-3.352H9.419a2.124,2.124,0,0,1-2.206-2.032V34.464a2.124,2.124,0,0,1,2.206-2.032h34.1V54.2a5.049,5.049,0,0,0,5.243,4.829H60.883A4.111,4.111,0,0,0,65.153,55.1V17.335a5.049,5.049,0,0,0-5.243-4.829H8.851A1.577,1.577,0,0,1,7.213,11m70.4,61.343h23.607v-.03h1.969a5.049,5.049,0,0,0,5.243-4.829V1.651A1.726,1.726,0,0,0,106.636,0h-3.627a1.726,1.726,0,0,0-1.793,1.651V50.869a1.586,1.586,0,0,1-1.648,1.516H95.66A1.594,1.594,0,0,1,94,50.862V38.127a1.445,1.445,0,0,0-1.5-1.382H88.291a1.443,1.443,0,0,0-1.5,1.382l0,15.915a5.215,5.215,0,0,0,5.416,4.987h7.359a1.586,1.586,0,0,1,1.648,1.518v3.635A1.587,1.587,0,0,1,99.568,65.7H81.226a1.587,1.587,0,0,1-1.648-1.517V1.651A1.725,1.725,0,0,0,77.786,0H74.158a1.726,1.726,0,0,0-1.793,1.651V67.513a5.049,5.049,0,0,0,5.243,4.829M88.428,30.111h3.939A1.576,1.576,0,0,0,94,28.6V1.651A1.726,1.726,0,0,0,92.21,0H88.583A1.726,1.726,0,0,0,86.79,1.651V28.6a1.576,1.576,0,0,0,1.638,1.508" transform="translate(-35.155)" fill="#45c4b0"/>
      <path id="Path_284-3" data-name="Path 284" d="M203.8,137.864v9.427a1.642,1.642,0,0,0,1.707,1.572h3.8a1.643,1.643,0,0,0,1.707-1.572V134.543a5.049,5.049,0,0,0-5.243-4.829h-52.7V98.376a1.986,1.986,0,0,1,2.063-1.9h3.085a1.986,1.986,0,0,1,2.063,1.9V120.1a3.108,3.108,0,0,0,3.228,2.972h42.257a5.049,5.049,0,0,0,5.243-4.829l0-10.3a5.049,5.049,0,0,0-5.243-4.829H183.486a1.51,1.51,0,0,1-1.567-1.443V97.921a1.509,1.509,0,0,1,1.567-1.443h22.279a5.049,5.049,0,0,0,5.243-4.829V81.38a5.049,5.049,0,0,0-5.243-4.829H147.493a1.575,1.575,0,0,0-1.638,1.506v3.628a1.575,1.575,0,0,0,1.638,1.506h54.666A1.576,1.576,0,0,1,203.8,84.7v3.629a1.575,1.575,0,0,1-1.636,1.506H178a3.171,3.171,0,0,0-3.292,3.033V106.4a3.5,3.5,0,0,0,3.64,3.352H201.59a2.124,2.124,0,0,1,2.206,2.032V114.4a2.124,2.124,0,0,1-2.206,2.032h-34.1V94.662a5.049,5.049,0,0,0-5.243-4.829H150.125a4.111,4.111,0,0,0-4.269,3.932v37.762a5.049,5.049,0,0,0,5.243,4.829h51.059a1.576,1.576,0,0,1,1.638,1.508M133.4,76.521H109.793v.03h-1.969a5.049,5.049,0,0,0-5.243,4.829v65.911a1.643,1.643,0,0,0,1.707,1.572h3.8a1.643,1.643,0,0,0,1.707-1.572v-49.3a1.586,1.586,0,0,1,1.648-1.516h3.908A1.6,1.6,0,0,1,117.006,98v12.735a1.445,1.445,0,0,0,1.5,1.382h4.212a1.443,1.443,0,0,0,1.5-1.382l0-15.915a5.215,5.215,0,0,0-5.416-4.987h-7.359a1.587,1.587,0,0,1-1.648-1.518V84.681a1.587,1.587,0,0,1,1.648-1.517h18.342a1.587,1.587,0,0,1,1.648,1.517v62.61a1.642,1.642,0,0,0,1.707,1.572h3.8a1.643,1.643,0,0,0,1.707-1.572V81.35a5.049,5.049,0,0,0-5.243-4.829m-10.819,42.231h-3.939a1.576,1.576,0,0,0-1.636,1.506v27.033a1.643,1.643,0,0,0,1.707,1.572h3.8a1.642,1.642,0,0,0,1.707-1.572V120.26a1.576,1.576,0,0,0-1.638-1.508" transform="translate(-21.565 3.284)" fill="#45c4b0"/>
      <path id="Path_285-3" data-name="Path 285" d="M109.793,151.076v-9.348A1.726,1.726,0,0,0,108,140.077h-3.627a1.726,1.726,0,0,0-1.793,1.651V154.4a5.049,5.049,0,0,0,5.243,4.829h52.7v31.338a1.986,1.986,0,0,1-2.063,1.9h-3.085a1.986,1.986,0,0,1-2.063-1.9V168.839a3.108,3.108,0,0,0-3.228-2.972H107.823a5.049,5.049,0,0,0-5.243,4.829l0,10.3a5.049,5.049,0,0,0,5.243,4.829H130.1a1.51,1.51,0,0,1,1.567,1.443v3.748a1.509,1.509,0,0,1-1.567,1.443H107.823a5.049,5.049,0,0,0-5.243,4.829V207.56a5.049,5.049,0,0,0,5.243,4.829H166.1a1.575,1.575,0,0,0,1.638-1.506v-3.628a1.575,1.575,0,0,0-1.638-1.506H111.429a1.576,1.576,0,0,1-1.636-1.507v-3.629a1.575,1.575,0,0,1,1.636-1.506h24.162a3.171,3.171,0,0,0,3.292-3.033V182.537a3.5,3.5,0,0,0-3.64-3.352H112a2.124,2.124,0,0,1-2.206-2.032v-2.613A2.124,2.124,0,0,1,112,172.51h34.1v21.768a5.049,5.049,0,0,0,5.243,4.829h12.124a4.111,4.111,0,0,0,4.269-3.932V157.412a5.049,5.049,0,0,0-5.243-4.829H111.43a1.576,1.576,0,0,1-1.638-1.508m70.4,61.343H203.8v-.03h1.969a5.049,5.049,0,0,0,5.243-4.829V141.728a1.726,1.726,0,0,0-1.793-1.651h-3.627a1.726,1.726,0,0,0-1.793,1.651v49.218a1.586,1.586,0,0,1-1.648,1.516H198.24a1.6,1.6,0,0,1-1.657-1.524V178.2a1.445,1.445,0,0,0-1.5-1.382h-4.212a1.443,1.443,0,0,0-1.5,1.382l0,15.915a5.215,5.215,0,0,0,5.416,4.987h7.359a1.587,1.587,0,0,1,1.648,1.518v3.635a1.587,1.587,0,0,1-1.648,1.517H183.806a1.587,1.587,0,0,1-1.648-1.517V141.728a1.725,1.725,0,0,0-1.793-1.651h-3.627a1.726,1.726,0,0,0-1.793,1.651V207.59a5.049,5.049,0,0,0,5.243,4.829m10.819-42.231h3.939a1.576,1.576,0,0,0,1.636-1.506V141.728a1.726,1.726,0,0,0-1.793-1.651h-3.627a1.726,1.726,0,0,0-1.793,1.651V168.68a1.576,1.576,0,0,0,1.638,1.508" transform="translate(-21.565 6.011)" fill="#45c4b0"/>
      <path id="Path_286-3" data-name="Path 286" d="M202.157,12.507H151.1a5.05,5.05,0,0,0-5.243,4.829V55.1a4.111,4.111,0,0,0,4.269,3.932h12.123a5.048,5.048,0,0,0,5.243-4.829V32.432h34.1a2.125,2.125,0,0,1,2.206,2.032v2.612a2.125,2.125,0,0,1-2.206,2.032H178.345a3.5,3.5,0,0,0-3.64,3.352V56A3.17,3.17,0,0,0,178,59.029h24.162a1.574,1.574,0,0,1,1.636,1.506v3.629a1.575,1.575,0,0,1-1.636,1.507H147.493a1.575,1.575,0,0,0-1.638,1.506v3.628a1.575,1.575,0,0,0,1.638,1.506h58.273a5.049,5.049,0,0,0,5.242-4.829V57.215a5.049,5.049,0,0,0-5.242-4.829H183.486a1.51,1.51,0,0,1-1.567-1.443V47.194a1.51,1.51,0,0,1,1.567-1.443h22.277a5.05,5.05,0,0,0,5.243-4.829l0-10.3a5.049,5.049,0,0,0-5.242-4.829H163.508a3.108,3.108,0,0,0-3.229,2.972V50.486a1.986,1.986,0,0,1-2.062,1.9h-3.086a1.986,1.986,0,0,1-2.062-1.9V19.148h52.7a5.049,5.049,0,0,0,5.242-4.829V1.651A1.727,1.727,0,0,0,209.215,0h-3.626A1.726,1.726,0,0,0,203.8,1.651V11a1.577,1.577,0,0,1-1.639,1.508M138.643,67.513V1.651A1.727,1.727,0,0,0,136.849,0h-3.626a1.727,1.727,0,0,0-1.794,1.651V64.182a1.586,1.586,0,0,1-1.647,1.517H111.439a1.586,1.586,0,0,1-1.647-1.517V60.547a1.586,1.586,0,0,1,1.647-1.518h7.36a5.215,5.215,0,0,0,5.416-4.987l0-15.915a1.446,1.446,0,0,0-1.5-1.382h-4.212a1.445,1.445,0,0,0-1.5,1.382V50.862a1.6,1.6,0,0,1-1.657,1.525h-3.909a1.586,1.586,0,0,1-1.647-1.517V1.651A1.727,1.727,0,0,0,108,0h-3.627a1.726,1.726,0,0,0-1.793,1.651V67.483a5.049,5.049,0,0,0,5.243,4.829h1.969v.03H133.4a5.049,5.049,0,0,0,5.243-4.829M124.219,28.6V1.651A1.728,1.728,0,0,0,122.426,0H118.8a1.727,1.727,0,0,0-1.793,1.651V28.6a1.575,1.575,0,0,0,1.635,1.506h3.94a1.577,1.577,0,0,0,1.639-1.508" transform="translate(-21.565)" fill="#45c4b0"/>
    </g>
  </g>
</svg>
